<svg width="100%" viewBox="0 0 680 672.77" role="img" style="" xmlns="http://www.w3.org/2000/svg">
  <title style="fill:rgb(0, 0, 0);stroke:none;color:rgb(255, 255, 255);stroke-width:1px;stroke-linecap:butt;stroke-linejoin:miter;opacity:1;font-family:&quot;Anthropic Sans&quot;, -apple-system, BlinkMacSystemFont, &quot;Segoe UI&quot;, sans-serif;font-size:16px;font-weight:400;text-anchor:start;dominant-baseline:auto">TimeMachineTrimmer macOS app icon</title>
  <desc style="fill:rgb(0, 0, 0);stroke:none;color:rgb(255, 255, 255);stroke-width:1px;stroke-linecap:butt;stroke-linejoin:miter;opacity:1;font-family:&quot;Anthropic Sans&quot;, -apple-system, BlinkMacSystemFont, &quot;Segoe UI&quot;, sans-serif;font-size:16px;font-weight:400;text-anchor:start;dominant-baseline:auto">macOS squircle app icon: coral scissors cutting a white timeline bar on a deep teal background, with smaller size previews below</desc>

  <defs>
    <clipPath id="ic">
      <rect x="140" y="30" width="400" height="400" rx="90"/>
    </clipPath>
    <clipPath id="ic2">
      <rect x="0" y="0" width="400" height="400" rx="90"/>
    </clipPath>
  </defs>

  <!-- Large icon — squircle background -->
  <rect x="140" y="30" width="400" height="400" rx="90" fill="#0F6E56" style="fill:rgb(15, 110, 86);stroke:none;color:rgb(255, 255, 255);stroke-width:1px;stroke-linecap:butt;stroke-linejoin:miter;opacity:1;font-family:&quot;Anthropic Sans&quot;, -apple-system, BlinkMacSystemFont, &quot;Segoe UI&quot;, sans-serif;font-size:16px;font-weight:400;text-anchor:start;dominant-baseline:auto"/>

  <!-- All icon content clipped to squircle -->
  <g clip-path="url(#ic)" style="fill:rgb(0, 0, 0);stroke:none;color:rgb(255, 255, 255);stroke-width:1px;stroke-linecap:butt;stroke-linejoin:miter;opacity:1;font-family:&quot;Anthropic Sans&quot;, -apple-system, BlinkMacSystemFont, &quot;Segoe UI&quot;, sans-serif;font-size:16px;font-weight:400;text-anchor:start;dominant-baseline:auto">

    <!-- Timeline old section (faded) -->
    <rect x="157" y="217" width="158" height="46" rx="8" fill="white" opacity="0.14" style="fill:rgb(255, 255, 255);stroke:none;color:rgb(255, 255, 255);stroke-width:1px;stroke-linecap:butt;stroke-linejoin:miter;opacity:0.14;font-family:&quot;Anthropic Sans&quot;, -apple-system, BlinkMacSystemFont, &quot;Segoe UI&quot;, sans-serif;font-size:16px;font-weight:400;text-anchor:start;dominant-baseline:auto"/>
    <!-- Timeline fresh section (vibrant) -->
    <rect x="315" y="217" width="210" height="46" rx="8" fill="white" opacity="0.75" style="fill:rgb(255, 255, 255);stroke:none;color:rgb(255, 255, 255);stroke-width:1px;stroke-linecap:butt;stroke-linejoin:miter;opacity:0.75;font-family:&quot;Anthropic Sans&quot;, -apple-system, BlinkMacSystemFont, &quot;Segoe UI&quot;, sans-serif;font-size:16px;font-weight:400;text-anchor:start;dominant-baseline:auto"/>

    <!-- Old dots -->
    <g fill="white" opacity="0.22" style="fill:rgb(255, 255, 255);stroke:none;color:rgb(255, 255, 255);stroke-width:1px;stroke-linecap:butt;stroke-linejoin:miter;opacity:0.22;font-family:&quot;Anthropic Sans&quot;, -apple-system, BlinkMacSystemFont, &quot;Segoe UI&quot;, sans-serif;font-size:16px;font-weight:400;text-anchor:start;dominant-baseline:auto">
      <circle cx="198" cy="240" r="5.5" style="fill:rgb(255, 255, 255);stroke:none;color:rgb(255, 255, 255);stroke-width:1px;stroke-linecap:butt;stroke-linejoin:miter;opacity:1;font-family:&quot;Anthropic Sans&quot;, -apple-system, BlinkMacSystemFont, &quot;Segoe UI&quot;, sans-serif;font-size:16px;font-weight:400;text-anchor:start;dominant-baseline:auto"/>
      <circle cx="242" cy="240" r="5.5" style="fill:rgb(255, 255, 255);stroke:none;color:rgb(255, 255, 255);stroke-width:1px;stroke-linecap:butt;stroke-linejoin:miter;opacity:1;font-family:&quot;Anthropic Sans&quot;, -apple-system, BlinkMacSystemFont, &quot;Segoe UI&quot;, sans-serif;font-size:16px;font-weight:400;text-anchor:start;dominant-baseline:auto"/>
      <circle cx="286" cy="240" r="5.5" style="fill:rgb(255, 255, 255);stroke:none;color:rgb(255, 255, 255);stroke-width:1px;stroke-linecap:butt;stroke-linejoin:miter;opacity:1;font-family:&quot;Anthropic Sans&quot;, -apple-system, BlinkMacSystemFont, &quot;Segoe UI&quot;, sans-serif;font-size:16px;font-weight:400;text-anchor:start;dominant-baseline:auto"/>
    </g>

    <!-- Fresh dots -->
    <g fill="white" opacity="0.9" style="fill:rgb(255, 255, 255);stroke:none;color:rgb(255, 255, 255);stroke-width:1px;stroke-linecap:butt;stroke-linejoin:miter;opacity:0.9;font-family:&quot;Anthropic Sans&quot;, -apple-system, BlinkMacSystemFont, &quot;Segoe UI&quot;, sans-serif;font-size:16px;font-weight:400;text-anchor:start;dominant-baseline:auto">
      <circle cx="348" cy="240" r="5.5" style="fill:rgb(255, 255, 255);stroke:none;color:rgb(255, 255, 255);stroke-width:1px;stroke-linecap:butt;stroke-linejoin:miter;opacity:1;font-family:&quot;Anthropic Sans&quot;, -apple-system, BlinkMacSystemFont, &quot;Segoe UI&quot;, sans-serif;font-size:16px;font-weight:400;text-anchor:start;dominant-baseline:auto"/>
      <circle cx="392" cy="240" r="5.5" style="fill:rgb(255, 255, 255);stroke:none;color:rgb(255, 255, 255);stroke-width:1px;stroke-linecap:butt;stroke-linejoin:miter;opacity:1;font-family:&quot;Anthropic Sans&quot;, -apple-system, BlinkMacSystemFont, &quot;Segoe UI&quot;, sans-serif;font-size:16px;font-weight:400;text-anchor:start;dominant-baseline:auto"/>
      <circle cx="436" cy="240" r="5.5" style="fill:rgb(255, 255, 255);stroke:none;color:rgb(255, 255, 255);stroke-width:1px;stroke-linecap:butt;stroke-linejoin:miter;opacity:1;font-family:&quot;Anthropic Sans&quot;, -apple-system, BlinkMacSystemFont, &quot;Segoe UI&quot;, sans-serif;font-size:16px;font-weight:400;text-anchor:start;dominant-baseline:auto"/>
      <circle cx="480" cy="240" r="5.5" style="fill:rgb(255, 255, 255);stroke:none;color:rgb(255, 255, 255);stroke-width:1px;stroke-linecap:butt;stroke-linejoin:miter;opacity:1;font-family:&quot;Anthropic Sans&quot;, -apple-system, BlinkMacSystemFont, &quot;Segoe UI&quot;, sans-serif;font-size:16px;font-weight:400;text-anchor:start;dominant-baseline:auto"/>
      <circle cx="516" cy="240" r="5.5" style="fill:rgb(255, 255, 255);stroke:none;color:rgb(255, 255, 255);stroke-width:1px;stroke-linecap:butt;stroke-linejoin:miter;opacity:1;font-family:&quot;Anthropic Sans&quot;, -apple-system, BlinkMacSystemFont, &quot;Segoe UI&quot;, sans-serif;font-size:16px;font-weight:400;text-anchor:start;dominant-baseline:auto"/>
    </g>

    <!-- Scissors — exact uploaded paths, coral, pivot at (315,240), scale 7.5 -->
    <g transform="translate(315,240) scale(7.5) translate(-16.019,-14.542)" fill="#F0997B" style="fill:rgb(240, 153, 123);stroke:none;color:rgb(255, 255, 255);stroke-width:1px;stroke-linecap:butt;stroke-linejoin:miter;opacity:1;font-family:&quot;Anthropic Sans&quot;, -apple-system, BlinkMacSystemFont, &quot;Segoe UI&quot;, sans-serif;font-size:16px;font-weight:400;text-anchor:start;dominant-baseline:auto">
      <polygon points="30.103,8.836 30.712,8.241 19.166,11.978 18.271,14.642" style="fill:rgb(240, 153, 123);stroke:none;color:rgb(255, 255, 255);stroke-width:1px;stroke-linecap:butt;stroke-linejoin:miter;opacity:1;font-family:&quot;Anthropic Sans&quot;, -apple-system, BlinkMacSystemFont, &quot;Segoe UI&quot;, sans-serif;font-size:16px;font-weight:400;text-anchor:start;dominant-baseline:auto"/>
      <path d="M14.952,12.977l-7.362,0.272c-0.068-0.091-0.141-0.179-0.22-0.261&#10;        c-1.028-1.069-2.828-1.214-4.279-0.347c-0.806,0.481-1.404,1.206-1.686,2.041&#10;        c-0.291,0.861-0.211,1.736,0.224,2.462c0.107,0.181,0.235,0.348,0.38,0.498l0,0&#10;        c0.787,0.817,2.025,1.094,3.213,0.789c0.034,0.065,0.075,0.129,0.129,0.185&#10;        c0.304,0.315,0.806,0.325,1.122,0.022c0.247-0.238,0.304-0.597,0.173-0.893&#10;        c0.625-0.469,1.09-1.094,1.328-1.799c0.163-0.48,0.205-0.964,0.139-1.425l5.942,0.189&#10;        L14.952,12.977z M7.072,15.645c-0.209,0.621-0.661,1.164-1.273,1.529&#10;        c-1.075,0.643-2.381,0.562-3.106-0.189c-0.095-0.1-0.179-0.209-0.249-0.325&#10;        c-0.29-0.484-0.339-1.078-0.139-1.671c0.209-0.621,0.661-1.164,1.272-1.53&#10;        c1.075-0.643,2.382-0.563,3.106,0.19c0.095,0.099,0.179,0.209,0.249,0.326&#10;        C7.224,14.458,7.272,15.052,7.072,15.645z" style="fill:rgb(240, 153, 123);stroke:none;color:rgb(255, 255, 255);stroke-width:1px;stroke-linecap:butt;stroke-linejoin:miter;opacity:1;font-family:&quot;Anthropic Sans&quot;, -apple-system, BlinkMacSystemFont, &quot;Segoe UI&quot;, sans-serif;font-size:16px;font-weight:400;text-anchor:start;dominant-baseline:auto"/>
      <path d="M16.431,31.825c0.05-0.205-0.793-2.497,0.023-3.378&#10;        c0.346-0.27,0.652-0.602,0.9-0.983c0.922-1.418,0.846-3.222-0.182-4.29&#10;        c-0.028-0.029-0.06-0.054-0.089-0.083l0.502-8.346L22.534,0l-0.76,0.977&#10;        l-7,13.546l1.168,1.269l-0.444,6.553c-0.407-0.048-0.833-0.012-1.26,0.113&#10;        c-0.845,0.25-1.592,0.819-2.104,1.606c-0.922,1.418-0.846,3.222,0.182,4.291&#10;        c0.145,0.148,0.308,0.283,0.483,0.396c0.395,0.258,0.84,0.402,1.307,0.439&#10;        c1.149,0.514,1.223,2.106,1.361,2.434C15.607,31.956,16.377,32.041,16.431,31.825z&#10;        M16.019,14.542c-0.19-0.199-0.184-0.514,0.014-0.705&#10;        c0.198-0.189,0.513-0.184,0.704,0.015c0.19,0.197,0.184,0.513-0.014,0.703&#10;        C16.524,14.746,16.209,14.74,16.019,14.542z&#10;        M14.982,28.157c-0.601,0.178-1.192,0.104-1.665-0.202&#10;        c-0.115-0.075-0.221-0.162-0.316-0.262c-0.725-0.752-0.754-2.062-0.071-3.11&#10;        c0.388-0.599,0.948-1.028,1.577-1.214c0.601-0.178,1.191-0.105,1.664,0.201&#10;        c0.115,0.076,0.221,0.164,0.316,0.264c0.725,0.752,0.753,2.061,0.071,3.111&#10;        C16.169,27.541,15.609,27.973,14.982,28.157z" style="fill:rgb(240, 153, 123);stroke:none;color:rgb(255, 255, 255);stroke-width:1px;stroke-linecap:butt;stroke-linejoin:miter;opacity:1;font-family:&quot;Anthropic Sans&quot;, -apple-system, BlinkMacSystemFont, &quot;Segoe UI&quot;, sans-serif;font-size:16px;font-weight:400;text-anchor:start;dominant-baseline:auto"/>
    </g>
  </g>

  <!-- Subtle squircle edge -->
  <rect x="140" y="30" width="400" height="400" rx="90" fill="none" stroke="white" stroke-width="1.5" opacity="0.12" style="fill:none;stroke:rgb(255, 255, 255);color:rgb(255, 255, 255);stroke-width:1.5px;stroke-linecap:butt;stroke-linejoin:miter;opacity:0.12;font-family:&quot;Anthropic Sans&quot;, -apple-system, BlinkMacSystemFont, &quot;Segoe UI&quot;, sans-serif;font-size:16px;font-weight:400;text-anchor:start;dominant-baseline:auto"/>

  <!-- Size previews row -->
  <!-- 128×128 -->
  <g transform="translate(168,458) scale(0.32) translate(-140,-30)" style="fill:rgb(0, 0, 0);stroke:none;color:rgb(255, 255, 255);stroke-width:1px;stroke-linecap:butt;stroke-linejoin:miter;opacity:1;font-family:&quot;Anthropic Sans&quot;, -apple-system, BlinkMacSystemFont, &quot;Segoe UI&quot;, sans-serif;font-size:16px;font-weight:400;text-anchor:start;dominant-baseline:auto">
    <rect x="140" y="30" width="400" height="400" rx="90" fill="#0F6E56" style="fill:rgb(15, 110, 86);stroke:none;color:rgb(255, 255, 255);stroke-width:1px;stroke-linecap:butt;stroke-linejoin:miter;opacity:1;font-family:&quot;Anthropic Sans&quot;, -apple-system, BlinkMacSystemFont, &quot;Segoe UI&quot;, sans-serif;font-size:16px;font-weight:400;text-anchor:start;dominant-baseline:auto"/>
    <g clip-path="url(#ic)" style="fill:rgb(0, 0, 0);stroke:none;color:rgb(255, 255, 255);stroke-width:1px;stroke-linecap:butt;stroke-linejoin:miter;opacity:1;font-family:&quot;Anthropic Sans&quot;, -apple-system, BlinkMacSystemFont, &quot;Segoe UI&quot;, sans-serif;font-size:16px;font-weight:400;text-anchor:start;dominant-baseline:auto">
      <rect x="157" y="217" width="158" height="46" rx="8" fill="white" opacity="0.14" style="fill:rgb(255, 255, 255);stroke:none;color:rgb(255, 255, 255);stroke-width:1px;stroke-linecap:butt;stroke-linejoin:miter;opacity:0.14;font-family:&quot;Anthropic Sans&quot;, -apple-system, BlinkMacSystemFont, &quot;Segoe UI&quot;, sans-serif;font-size:16px;font-weight:400;text-anchor:start;dominant-baseline:auto"/>
      <rect x="315" y="217" width="210" height="46" rx="8" fill="white" opacity="0.75" style="fill:rgb(255, 255, 255);stroke:none;color:rgb(255, 255, 255);stroke-width:1px;stroke-linecap:butt;stroke-linejoin:miter;opacity:0.75;font-family:&quot;Anthropic Sans&quot;, -apple-system, BlinkMacSystemFont, &quot;Segoe UI&quot;, sans-serif;font-size:16px;font-weight:400;text-anchor:start;dominant-baseline:auto"/>
      <g fill="white" opacity="0.22" style="fill:rgb(255, 255, 255);stroke:none;color:rgb(255, 255, 255);stroke-width:1px;stroke-linecap:butt;stroke-linejoin:miter;opacity:0.22;font-family:&quot;Anthropic Sans&quot;, -apple-system, BlinkMacSystemFont, &quot;Segoe UI&quot;, sans-serif;font-size:16px;font-weight:400;text-anchor:start;dominant-baseline:auto">
        <circle cx="198" cy="240" r="5.5" style="fill:rgb(255, 255, 255);stroke:none;color:rgb(255, 255, 255);stroke-width:1px;stroke-linecap:butt;stroke-linejoin:miter;opacity:1;font-family:&quot;Anthropic Sans&quot;, -apple-system, BlinkMacSystemFont, &quot;Segoe UI&quot;, sans-serif;font-size:16px;font-weight:400;text-anchor:start;dominant-baseline:auto"/><circle cx="242" cy="240" r="5.5" style="fill:rgb(255, 255, 255);stroke:none;color:rgb(255, 255, 255);stroke-width:1px;stroke-linecap:butt;stroke-linejoin:miter;opacity:1;font-family:&quot;Anthropic Sans&quot;, -apple-system, BlinkMacSystemFont, &quot;Segoe UI&quot;, sans-serif;font-size:16px;font-weight:400;text-anchor:start;dominant-baseline:auto"/><circle cx="286" cy="240" r="5.5" style="fill:rgb(255, 255, 255);stroke:none;color:rgb(255, 255, 255);stroke-width:1px;stroke-linecap:butt;stroke-linejoin:miter;opacity:1;font-family:&quot;Anthropic Sans&quot;, -apple-system, BlinkMacSystemFont, &quot;Segoe UI&quot;, sans-serif;font-size:16px;font-weight:400;text-anchor:start;dominant-baseline:auto"/>
      </g>
      <g fill="white" opacity="0.9" style="fill:rgb(255, 255, 255);stroke:none;color:rgb(255, 255, 255);stroke-width:1px;stroke-linecap:butt;stroke-linejoin:miter;opacity:0.9;font-family:&quot;Anthropic Sans&quot;, -apple-system, BlinkMacSystemFont, &quot;Segoe UI&quot;, sans-serif;font-size:16px;font-weight:400;text-anchor:start;dominant-baseline:auto">
        <circle cx="348" cy="240" r="5.5" style="fill:rgb(255, 255, 255);stroke:none;color:rgb(255, 255, 255);stroke-width:1px;stroke-linecap:butt;stroke-linejoin:miter;opacity:1;font-family:&quot;Anthropic Sans&quot;, -apple-system, BlinkMacSystemFont, &quot;Segoe UI&quot;, sans-serif;font-size:16px;font-weight:400;text-anchor:start;dominant-baseline:auto"/><circle cx="392" cy="240" r="5.5" style="fill:rgb(255, 255, 255);stroke:none;color:rgb(255, 255, 255);stroke-width:1px;stroke-linecap:butt;stroke-linejoin:miter;opacity:1;font-family:&quot;Anthropic Sans&quot;, -apple-system, BlinkMacSystemFont, &quot;Segoe UI&quot;, sans-serif;font-size:16px;font-weight:400;text-anchor:start;dominant-baseline:auto"/><circle cx="436" cy="240" r="5.5" style="fill:rgb(255, 255, 255);stroke:none;color:rgb(255, 255, 255);stroke-width:1px;stroke-linecap:butt;stroke-linejoin:miter;opacity:1;font-family:&quot;Anthropic Sans&quot;, -apple-system, BlinkMacSystemFont, &quot;Segoe UI&quot;, sans-serif;font-size:16px;font-weight:400;text-anchor:start;dominant-baseline:auto"/><circle cx="480" cy="240" r="5.5" style="fill:rgb(255, 255, 255);stroke:none;color:rgb(255, 255, 255);stroke-width:1px;stroke-linecap:butt;stroke-linejoin:miter;opacity:1;font-family:&quot;Anthropic Sans&quot;, -apple-system, BlinkMacSystemFont, &quot;Segoe UI&quot;, sans-serif;font-size:16px;font-weight:400;text-anchor:start;dominant-baseline:auto"/>
      </g>
      <g transform="translate(315,240) scale(7.5) translate(-16.019,-14.542)" fill="#F0997B" style="fill:rgb(240, 153, 123);stroke:none;color:rgb(255, 255, 255);stroke-width:1px;stroke-linecap:butt;stroke-linejoin:miter;opacity:1;font-family:&quot;Anthropic Sans&quot;, -apple-system, BlinkMacSystemFont, &quot;Segoe UI&quot;, sans-serif;font-size:16px;font-weight:400;text-anchor:start;dominant-baseline:auto">
        <polygon points="30.103,8.836 30.712,8.241 19.166,11.978 18.271,14.642" style="fill:rgb(240, 153, 123);stroke:none;color:rgb(255, 255, 255);stroke-width:1px;stroke-linecap:butt;stroke-linejoin:miter;opacity:1;font-family:&quot;Anthropic Sans&quot;, -apple-system, BlinkMacSystemFont, &quot;Segoe UI&quot;, sans-serif;font-size:16px;font-weight:400;text-anchor:start;dominant-baseline:auto"/>
        <path d="M14.952,12.977l-7.362,0.272c-0.068-0.091-0.141-0.179-0.22-0.261c-1.028-1.069-2.828-1.214-4.279-0.347c-0.806,0.481-1.404,1.206-1.686,2.041c-0.291,0.861-0.211,1.736,0.224,2.462c0.107,0.181,0.235,0.348,0.38,0.498c0.787,0.817,2.025,1.094,3.213,0.789c0.034,0.065,0.075,0.129,0.129,0.185c0.304,0.315,0.806,0.325,1.122,0.022c0.247-0.238,0.304-0.597,0.173-0.893c0.625-0.469,1.09-1.094,1.328-1.799c0.163-0.48,0.205-0.964,0.139-1.425l5.942,0.189L14.952,12.977z M7.072,15.645c-0.209,0.621-0.661,1.164-1.273,1.529c-1.075,0.643-2.381,0.562-3.106-0.189c-0.095-0.1-0.179-0.209-0.249-0.325c-0.29-0.484-0.339-1.078-0.139-1.671c0.209-0.621,0.661-1.164,1.272-1.53c1.075-0.643,2.382-0.563,3.106,0.19c0.095,0.099,0.179,0.209,0.249,0.326C7.224,14.458,7.272,15.052,7.072,15.645z" style="fill:rgb(240, 153, 123);stroke:none;color:rgb(255, 255, 255);stroke-width:1px;stroke-linecap:butt;stroke-linejoin:miter;opacity:1;font-family:&quot;Anthropic Sans&quot;, -apple-system, BlinkMacSystemFont, &quot;Segoe UI&quot;, sans-serif;font-size:16px;font-weight:400;text-anchor:start;dominant-baseline:auto"/>
        <path d="M16.431,31.825c0.05-0.205-0.793-2.497,0.023-3.378c0.346-0.27,0.652-0.602,0.9-0.983c0.922-1.418,0.846-3.222-0.182-4.29c-0.028-0.029-0.06-0.054-0.089-0.083l0.502-8.346L22.534,0l-0.76,0.977l-7,13.546l1.168,1.269l-0.444,6.553c-0.407-0.048-0.833-0.012-1.26,0.113c-0.845,0.25-1.592,0.819-2.104,1.606c-0.922,1.418-0.846,3.222,0.182,4.291c0.145,0.148,0.308,0.283,0.483,0.396c0.395,0.258,0.84,0.402,1.307,0.439c1.149,0.514,1.223,2.106,1.361,2.434C15.607,31.956,16.377,32.041,16.431,31.825z M16.019,14.542c-0.19-0.199-0.184-0.514,0.014-0.705c0.198-0.189,0.513-0.184,0.704,0.015c0.19,0.197,0.184,0.513-0.014,0.703C16.524,14.746,16.209,14.74,16.019,14.542z M14.982,28.157c-0.601,0.178-1.192,0.104-1.665-0.202c-0.115-0.075-0.221-0.162-0.316-0.262c-0.725-0.752-0.754-2.062-0.071-3.11c0.388-0.599,0.948-1.028,1.577-1.214c0.601-0.178,1.191-0.105,1.664,0.201c0.115,0.076,0.221,0.164,0.316,0.264c0.725,0.752,0.753,2.061,0.071,3.111C16.169,27.541,15.609,27.973,14.982,28.157z" style="fill:rgb(240, 153, 123);stroke:none;color:rgb(255, 255, 255);stroke-width:1px;stroke-linecap:butt;stroke-linejoin:miter;opacity:1;font-family:&quot;Anthropic Sans&quot;, -apple-system, BlinkMacSystemFont, &quot;Segoe UI&quot;, sans-serif;font-size:16px;font-weight:400;text-anchor:start;dominant-baseline:auto"/>
      </g>
    </g>
  </g>

  <!-- 64×64 -->
  <g transform="translate(314,474) scale(0.16) translate(-140,-30)" style="fill:rgb(0, 0, 0);stroke:none;color:rgb(255, 255, 255);stroke-width:1px;stroke-linecap:butt;stroke-linejoin:miter;opacity:1;font-family:&quot;Anthropic Sans&quot;, -apple-system, BlinkMacSystemFont, &quot;Segoe UI&quot;, sans-serif;font-size:16px;font-weight:400;text-anchor:start;dominant-baseline:auto">
    <rect x="140" y="30" width="400" height="400" rx="90" fill="#0F6E56" style="fill:rgb(15, 110, 86);stroke:none;color:rgb(255, 255, 255);stroke-width:1px;stroke-linecap:butt;stroke-linejoin:miter;opacity:1;font-family:&quot;Anthropic Sans&quot;, -apple-system, BlinkMacSystemFont, &quot;Segoe UI&quot;, sans-serif;font-size:16px;font-weight:400;text-anchor:start;dominant-baseline:auto"/>
    <g clip-path="url(#ic)" style="fill:rgb(0, 0, 0);stroke:none;color:rgb(255, 255, 255);stroke-width:1px;stroke-linecap:butt;stroke-linejoin:miter;opacity:1;font-family:&quot;Anthropic Sans&quot;, -apple-system, BlinkMacSystemFont, &quot;Segoe UI&quot;, sans-serif;font-size:16px;font-weight:400;text-anchor:start;dominant-baseline:auto">
      <rect x="157" y="217" width="158" height="46" rx="8" fill="white" opacity="0.14" style="fill:rgb(255, 255, 255);stroke:none;color:rgb(255, 255, 255);stroke-width:1px;stroke-linecap:butt;stroke-linejoin:miter;opacity:0.14;font-family:&quot;Anthropic Sans&quot;, -apple-system, BlinkMacSystemFont, &quot;Segoe UI&quot;, sans-serif;font-size:16px;font-weight:400;text-anchor:start;dominant-baseline:auto"/>
      <rect x="315" y="217" width="210" height="46" rx="8" fill="white" opacity="0.75" style="fill:rgb(255, 255, 255);stroke:none;color:rgb(255, 255, 255);stroke-width:1px;stroke-linecap:butt;stroke-linejoin:miter;opacity:0.75;font-family:&quot;Anthropic Sans&quot;, -apple-system, BlinkMacSystemFont, &quot;Segoe UI&quot;, sans-serif;font-size:16px;font-weight:400;text-anchor:start;dominant-baseline:auto"/>
      <g transform="translate(315,240) scale(7.5) translate(-16.019,-14.542)" fill="#F0997B" style="fill:rgb(240, 153, 123);stroke:none;color:rgb(255, 255, 255);stroke-width:1px;stroke-linecap:butt;stroke-linejoin:miter;opacity:1;font-family:&quot;Anthropic Sans&quot;, -apple-system, BlinkMacSystemFont, &quot;Segoe UI&quot;, sans-serif;font-size:16px;font-weight:400;text-anchor:start;dominant-baseline:auto">
        <polygon points="30.103,8.836 30.712,8.241 19.166,11.978 18.271,14.642" style="fill:rgb(240, 153, 123);stroke:none;color:rgb(255, 255, 255);stroke-width:1px;stroke-linecap:butt;stroke-linejoin:miter;opacity:1;font-family:&quot;Anthropic Sans&quot;, -apple-system, BlinkMacSystemFont, &quot;Segoe UI&quot;, sans-serif;font-size:16px;font-weight:400;text-anchor:start;dominant-baseline:auto"/>
        <path d="M14.952,12.977l-7.362,0.272c-0.068-0.091-0.141-0.179-0.22-0.261c-1.028-1.069-2.828-1.214-4.279-0.347c-0.806,0.481-1.404,1.206-1.686,2.041c-0.291,0.861-0.211,1.736,0.224,2.462c0.107,0.181,0.235,0.348,0.38,0.498c0.787,0.817,2.025,1.094,3.213,0.789c0.034,0.065,0.075,0.129,0.129,0.185c0.304,0.315,0.806,0.325,1.122,0.022c0.247-0.238,0.304-0.597,0.173-0.893c0.625-0.469,1.09-1.094,1.328-1.799c0.163-0.48,0.205-0.964,0.139-1.425l5.942,0.189L14.952,12.977z" style="fill:rgb(240, 153, 123);stroke:none;color:rgb(255, 255, 255);stroke-width:1px;stroke-linecap:butt;stroke-linejoin:miter;opacity:1;font-family:&quot;Anthropic Sans&quot;, -apple-system, BlinkMacSystemFont, &quot;Segoe UI&quot;, sans-serif;font-size:16px;font-weight:400;text-anchor:start;dominant-baseline:auto"/>
        <path d="M16.431,31.825c0.05-0.205-0.793-2.497,0.023-3.378c0.346-0.27,0.652-0.602,0.9-0.983c0.922-1.418,0.846-3.222-0.182-4.29c-0.028-0.029-0.06-0.054-0.089-0.083l0.502-8.346L22.534,0l-0.76,0.977l-7,13.546l1.168,1.269l-0.444,6.553c-0.407-0.048-0.833-0.012-1.26,0.113c-0.845,0.25-1.592,0.819-2.104,1.606c-0.922,1.418-0.846,3.222,0.182,4.291c0.145,0.148,0.308,0.283,0.483,0.396c0.395,0.258,0.84,0.402,1.307,0.439c1.149,0.514,1.223,2.106,1.361,2.434C15.607,31.956,16.377,32.041,16.431,31.825z" style="fill:rgb(240, 153, 123);stroke:none;color:rgb(255, 255, 255);stroke-width:1px;stroke-linecap:butt;stroke-linejoin:miter;opacity:1;font-family:&quot;Anthropic Sans&quot;, -apple-system, BlinkMacSystemFont, &quot;Segoe UI&quot;, sans-serif;font-size:16px;font-weight:400;text-anchor:start;dominant-baseline:auto"/>
      </g>
    </g>
  </g>

  <!-- 32×32 -->
  <g transform="translate(396,482) scale(0.08) translate(-140,-30)" style="fill:rgb(0, 0, 0);stroke:none;color:rgb(255, 255, 255);stroke-width:1px;stroke-linecap:butt;stroke-linejoin:miter;opacity:1;font-family:&quot;Anthropic Sans&quot;, -apple-system, BlinkMacSystemFont, &quot;Segoe UI&quot;, sans-serif;font-size:16px;font-weight:400;text-anchor:start;dominant-baseline:auto">
    <rect x="140" y="30" width="400" height="400" rx="90" fill="#0F6E56" style="fill:rgb(15, 110, 86);stroke:none;color:rgb(255, 255, 255);stroke-width:1px;stroke-linecap:butt;stroke-linejoin:miter;opacity:1;font-family:&quot;Anthropic Sans&quot;, -apple-system, BlinkMacSystemFont, &quot;Segoe UI&quot;, sans-serif;font-size:16px;font-weight:400;text-anchor:start;dominant-baseline:auto"/>
    <g clip-path="url(#ic)" style="fill:rgb(0, 0, 0);stroke:none;color:rgb(255, 255, 255);stroke-width:1px;stroke-linecap:butt;stroke-linejoin:miter;opacity:1;font-family:&quot;Anthropic Sans&quot;, -apple-system, BlinkMacSystemFont, &quot;Segoe UI&quot;, sans-serif;font-size:16px;font-weight:400;text-anchor:start;dominant-baseline:auto">
      <rect x="157" y="217" width="158" height="46" rx="8" fill="white" opacity="0.14" style="fill:rgb(255, 255, 255);stroke:none;color:rgb(255, 255, 255);stroke-width:1px;stroke-linecap:butt;stroke-linejoin:miter;opacity:0.14;font-family:&quot;Anthropic Sans&quot;, -apple-system, BlinkMacSystemFont, &quot;Segoe UI&quot;, sans-serif;font-size:16px;font-weight:400;text-anchor:start;dominant-baseline:auto"/>
      <rect x="315" y="217" width="210" height="46" rx="8" fill="white" opacity="0.75" style="fill:rgb(255, 255, 255);stroke:none;color:rgb(255, 255, 255);stroke-width:1px;stroke-linecap:butt;stroke-linejoin:miter;opacity:0.75;font-family:&quot;Anthropic Sans&quot;, -apple-system, BlinkMacSystemFont, &quot;Segoe UI&quot;, sans-serif;font-size:16px;font-weight:400;text-anchor:start;dominant-baseline:auto"/>
      <g transform="translate(315,240) scale(7.5) translate(-16.019,-14.542)" fill="#F0997B" style="fill:rgb(240, 153, 123);stroke:none;color:rgb(255, 255, 255);stroke-width:1px;stroke-linecap:butt;stroke-linejoin:miter;opacity:1;font-family:&quot;Anthropic Sans&quot;, -apple-system, BlinkMacSystemFont, &quot;Segoe UI&quot;, sans-serif;font-size:16px;font-weight:400;text-anchor:start;dominant-baseline:auto">
        <polygon points="30.103,8.836 30.712,8.241 19.166,11.978 18.271,14.642" style="fill:rgb(240, 153, 123);stroke:none;color:rgb(255, 255, 255);stroke-width:1px;stroke-linecap:butt;stroke-linejoin:miter;opacity:1;font-family:&quot;Anthropic Sans&quot;, -apple-system, BlinkMacSystemFont, &quot;Segoe UI&quot;, sans-serif;font-size:16px;font-weight:400;text-anchor:start;dominant-baseline:auto"/>
        <path d="M16.431,31.825c0.05-0.205-0.793-2.497,0.023-3.378c0.346-0.27,0.652-0.602,0.9-0.983c0.922-1.418,0.846-3.222-0.182-4.29c-0.028-0.029-0.06-0.054-0.089-0.083l0.502-8.346L22.534,0l-0.76,0.977l-7,13.546l1.168,1.269l-0.444,6.553c-0.407-0.048-0.833-0.012-1.26,0.113c-0.845,0.25-1.592,0.819-2.104,1.606c-0.922,1.418-0.846,3.222,0.182,4.291c0.145,0.148,0.308,0.283,0.483,0.396c0.395,0.258,0.84,0.402,1.307,0.439c1.149,0.514,1.223,2.106,1.361,2.434C15.607,31.956,16.377,32.041,16.431,31.825z" style="fill:rgb(240, 153, 123);stroke:none;color:rgb(255, 255, 255);stroke-width:1px;stroke-linecap:butt;stroke-linejoin:miter;opacity:1;font-family:&quot;Anthropic Sans&quot;, -apple-system, BlinkMacSystemFont, &quot;Segoe UI&quot;, sans-serif;font-size:16px;font-weight:400;text-anchor:start;dominant-baseline:auto"/>
      </g>
    </g>
  </g>

  <!-- Size labels -->
  <text x="232" y="602" text-anchor="middle" font-size="11" fill="var(--color-text-secondary)" font-family="sans-serif" style="fill:rgb(194, 192, 182);stroke:none;color:rgb(255, 255, 255);stroke-width:1px;stroke-linecap:butt;stroke-linejoin:miter;opacity:1;font-family:sans-serif;font-size:11px;font-weight:400;text-anchor:middle;dominant-baseline:auto">128 px</text>
  <text x="346" y="602" text-anchor="middle" font-size="11" fill="var(--color-text-secondary)" font-family="sans-serif" style="fill:rgb(194, 192, 182);stroke:none;color:rgb(255, 255, 255);stroke-width:1px;stroke-linecap:butt;stroke-linejoin:miter;opacity:1;font-family:sans-serif;font-size:11px;font-weight:400;text-anchor:middle;dominant-baseline:auto">64 px</text>
  <text x="412" y="602" text-anchor="middle" font-size="11" fill="var(--color-text-secondary)" font-family="sans-serif" style="fill:rgb(194, 192, 182);stroke:none;color:rgb(255, 255, 255);stroke-width:1px;stroke-linecap:butt;stroke-linejoin:miter;opacity:1;font-family:sans-serif;font-size:11px;font-weight:400;text-anchor:middle;dominant-baseline:auto">32 px</text>

  <!-- Divider -->
  <line x1="160" y1="614" x2="520" y2="614" stroke="var(--color-border-tertiary)" stroke-width="0.5" style="fill:rgb(0, 0, 0);stroke:rgba(222, 220, 209, 0.15);color:rgb(255, 255, 255);stroke-width:0.5px;stroke-linecap:butt;stroke-linejoin:miter;opacity:1;font-family:&quot;Anthropic Sans&quot;, -apple-system, BlinkMacSystemFont, &quot;Segoe UI&quot;, sans-serif;font-size:16px;font-weight:400;text-anchor:start;dominant-baseline:auto"/>

  <!-- App name + tagline -->
  <text x="340" y="638" text-anchor="middle" font-size="19" font-weight="500" fill="var(--color-text-primary)" font-family="sans-serif" style="fill:rgb(250, 249, 245);stroke:none;color:rgb(255, 255, 255);stroke-width:1px;stroke-linecap:butt;stroke-linejoin:miter;opacity:1;font-family:sans-serif;font-size:19px;font-weight:500;text-anchor:middle;dominant-baseline:auto">TimeMachineTrimmer</text>
  <text x="340" y="660" text-anchor="middle" font-size="12" fill="var(--color-text-secondary)" font-family="sans-serif" style="fill:rgb(194, 192, 182);stroke:none;color:rgb(255, 255, 255);stroke-width:1px;stroke-linecap:butt;stroke-linejoin:miter;opacity:1;font-family:sans-serif;font-size:12px;font-weight:400;text-anchor:middle;dominant-baseline:auto">Trim old backups from your timeline</text>
</svg>